# xmcd
#
# Track frame offsets:
#	150
#	10467
#	24553
#	43723
#	70146
#	86383
#	111241
#
# Disc length: 1884 seconds
#
# Revision: 5
# Processed by: cddbd v1.5.1PL2 Copyright (c) Steve Scherf et al.
# Submitted via: EasyCDDAExtractor 9.1.3.1
#
DISCID=53075a07
DTITLE=The Yardbirds - Live! Blueswailing July '64
DYEAR=1964
DGENRE=Blues
TTITLE0=Someone To Love Me
TTITLE1=Too Much Monkey Business
TTITLE2=I Got Love If You Want It
TTITLE3=Smokestack Lightning
TTITLE4=Good Morning Little Schoolgirl
TTITLE5=She Is So Respectable , Humpty Dumpty
TTITLE6=The Sky Is Crying
EXTD=
EXTT0=
EXTT1=
EXTT2=
EXTT3=
EXTT4=
EXTT5=
EXTT6=
PLAYORDER=
